<?xml version="1.0" standalone="no"?>
<!DOCTYPE svg PUBLIC "-//W3C//DTD SVG 20010904//EN"
 "http://www.w3.org/TR/2001/REC-SVG-20010904/DTD/svg10.dtd">
<svg version="1.0" xmlns="http://www.w3.org/2000/svg"
 width="25.000000pt" height="27.000000pt" viewBox="0 0 25.000000 27.000000"
 preserveAspectRatio="xMidYMid meet">
<metadata>
Created by potrace 1.11, written by Peter Selinger 2001-2013
</metadata>
<g transform="translate(0.000000,27.000000) scale(0.100000,-0.100000)"
fill="#000000" stroke="none">
<path d="M60 189 l0 -81 -15 12 -15 12 0 -9 0 -10 20 -18 20 -18 20 18 20 18
0 10 0 9 -15 -12 -15 -12 0 66 0 66 45 0 45 0 0 -25 0 -25 25 0 25 0 0 -65 0
-65 -35 0 -35 0 0 -15 0 -15 50 0 50 0 0 77 0 77 -42 43 -42 43 -53 0 -53 0 0
-81z"/>
<path d="M100 200 l0 -10 25 0 25 0 0 10 0 10 -25 0 -25 0 0 -10z"/>
<path d="M100 152 l0 -8 50 -3 50 -2 0 11 0 10 -50 0 -50 0 0 -8z"/>
<path d="M135 100 l20 -9 23 0 22 -1 0 10 0 10 -42 -1 -43 0 20 -9z"/>
<path d="M1 48 l-1 -48 70 0 70 0 -1 48 -2 47 -4 -27 -4 -28 -59 0 -59 0 -4
28 -4 27 -2 -47z m59 -28 l0 -10 -10 0 -10 0 0 10 0 10 10 0 10 0 0 -10z m40
0 l0 -10 -10 0 -10 0 0 10 0 10 10 0 10 0 0 -10z"/>
<path d="M20 60 l0 -10 10 0 10 0 0 10 0 10 -10 0 -10 0 0 -10z"/>
<path d="M60 60 l0 -10 10 0 10 0 0 10 0 10 -10 0 -10 0 0 -10z"/>
<path d="M100 60 l0 -10 10 0 10 0 0 10 0 10 -10 0 -10 0 0 -10z"/>
</g>
</svg>
